<svg width="688" height="316" viewBox="0 0 688 316" fill="none" xmlns="http://www.w3.org/2000/svg">
<path d="M151.891 166.769H401.445L270.38 315.878L148.199 176.876C144.91 173.135 147.218 166.834 151.891 166.834V166.769Z" fill="#EBEEF9"/>
<path d="M401.446 131.459H116.875C111.395 131.459 106.088 128.965 102.223 124.568L1.61625 10.1106C-1.61423 6.3697 0.693259 0.00366211 5.30823 0.00366211H285.956L401.446 131.393V131.459Z" fill="#EBEEF9"/>
<path d="M688 74.1902L616.178 0.00341797H642.384C667.577 0.00341797 688 21.046 688 47.0034V74.1902Z" fill="#EBEEF9"/>
<path d="M688 204.213L600.257 295.003L474.128 164.493C470.733 160.981 473.115 155.065 477.939 155.065V155.003H688V204.213Z" fill="#EBEEF9"/>
<path d="M688 123.003H434.113L315.302 0.00341797H616.807L688 73.744V123.003Z" fill="#EBEEF9"/>
</svg>
