<svg width="25" height="25" viewBox="0 0 25 25" fill="none" xmlns="http://www.w3.org/2000/svg">
<path fill-rule="evenodd" clip-rule="evenodd" d="M13.5 5.55005C13.5 6.10305 13.052 6.55005 12.5 6.55005C11.948 6.55005 11.5 6.10305 11.5 5.55005V3.55005C11.5 2.99705 11.948 2.55005 12.5 2.55005C13.052 2.55005 13.5 2.99705 13.5 3.55005V5.55005ZM7.5 12.55C7.5 9.79305 9.743 7.55005 12.5 7.55005C15.257 7.55005 17.5 9.79305 17.5 12.55C17.5 14.129 16.746 15.612 15.5 16.546V20.55C15.5 21.653 14.603 22.55 13.5 22.55H11.5C10.397 22.55 9.5 21.653 9.5 20.55V16.546C8.253 15.612 7.5 14.129 7.5 12.55ZM21.5 11.55H19.5C18.947 11.55 18.5 11.997 18.5 12.55C18.5 13.103 18.947 13.55 19.5 13.55H21.5C22.053 13.55 22.5 13.103 22.5 12.55C22.5 11.997 22.053 11.55 21.5 11.55ZM3.5 11.55H5.5C6.052 11.55 6.5 11.997 6.5 12.55C6.5 13.103 6.052 13.55 5.5 13.55H3.5C2.948 13.55 2.5 13.103 2.5 12.55C2.5 11.997 2.948 11.55 3.5 11.55ZM8.1597 6.96805L6.7207 5.57805C6.3237 5.19505 5.6917 5.20705 5.3067 5.60405C4.9227 6.00005 4.9337 6.63405 5.3307 7.01805L6.7697 8.40705C6.9647 8.59505 7.2147 8.68805 7.4647 8.68805C7.7267 8.68805 7.9877 8.58505 8.1837 8.38205C8.5677 7.98605 8.5567 7.35205 8.1597 6.96805ZM18.2794 5.57975C18.6754 5.19675 19.3114 5.20775 19.6924 5.60375C20.0764 5.99975 20.0654 6.63375 19.6684 7.01675L18.2294 8.40675C18.0364 8.59375 17.7854 8.68775 17.5354 8.68775C17.2734 8.68775 17.0114 8.58475 16.8164 8.38175C16.4324 7.98575 16.4434 7.35175 16.8404 6.96875L18.2794 5.57975Z" fill="#151A30"/>
<mask id="mask0_1924_5074" style="mask-type:luminance" maskUnits="userSpaceOnUse" x="2" y="2" width="21" height="21">
<path fill-rule="evenodd" clip-rule="evenodd" d="M13.5 5.55005C13.5 6.10305 13.052 6.55005 12.5 6.55005C11.948 6.55005 11.5 6.10305 11.5 5.55005V3.55005C11.5 2.99705 11.948 2.55005 12.5 2.55005C13.052 2.55005 13.5 2.99705 13.5 3.55005V5.55005ZM7.5 12.55C7.5 9.79305 9.743 7.55005 12.5 7.55005C15.257 7.55005 17.5 9.79305 17.5 12.55C17.5 14.129 16.746 15.612 15.5 16.546V20.55C15.5 21.653 14.603 22.55 13.5 22.55H11.5C10.397 22.55 9.5 21.653 9.5 20.55V16.546C8.253 15.612 7.5 14.129 7.5 12.55ZM21.5 11.55H19.5C18.947 11.55 18.5 11.997 18.5 12.55C18.5 13.103 18.947 13.55 19.5 13.55H21.5C22.053 13.55 22.5 13.103 22.5 12.55C22.5 11.997 22.053 11.55 21.5 11.55ZM3.5 11.55H5.5C6.052 11.55 6.5 11.997 6.5 12.55C6.5 13.103 6.052 13.55 5.5 13.55H3.5C2.948 13.55 2.5 13.103 2.5 12.55C2.5 11.997 2.948 11.55 3.5 11.55ZM8.1597 6.96805L6.7207 5.57805C6.3237 5.19505 5.6917 5.20705 5.3067 5.60405C4.9227 6.00005 4.9337 6.63405 5.3307 7.01805L6.7697 8.40705C6.9647 8.59505 7.2147 8.68805 7.4647 8.68805C7.7267 8.68805 7.9877 8.58505 8.1837 8.38205C8.5677 7.98605 8.5567 7.35205 8.1597 6.96805ZM18.2794 5.57975C18.6754 5.19675 19.3114 5.20775 19.6924 5.60375C20.0764 5.99975 20.0654 6.63375 19.6684 7.01675L18.2294 8.40675C18.0364 8.59375 17.7854 8.68775 17.5354 8.68775C17.2734 8.68775 17.0114 8.58475 16.8164 8.38175C16.4324 7.98575 16.4434 7.35175 16.8404 6.96875L18.2794 5.57975Z" fill="white"/>
</mask>
<g mask="url(#mask0_1924_5074)">
<rect x="0.5" y="0.550049" width="24" height="24" fill="#151A30"/>
</g>
</svg>
