<svg width="320" height="101" viewBox="0 0 320 101" fill="none" xmlns="http://www.w3.org/2000/svg">
<path d="M32.2734 96.238V78.0058H38.603L42.1586 90.0597L45.7521 78.0058H52.0439V96.238H47.7317V82.6584L43.7599 96.238H40.5573L36.5856 82.6962V96.238H32.2734Z" fill="white"/>
<path d="M60.719 96.4901C59.4077 96.4901 58.2687 96.2127 57.3021 95.658C56.3354 95.0948 55.5831 94.313 55.0451 93.3128C54.5155 92.3041 54.2508 91.1314 54.2508 89.7949C54.2508 88.4332 54.5198 87.2396 55.0577 86.2141C55.6041 85.1802 56.3648 84.3774 57.3399 83.8058C58.315 83.2342 59.4455 82.9484 60.7316 82.9484C62.0597 82.9484 63.2029 83.2384 64.1612 83.8184C65.1279 84.39 65.8718 85.1928 66.3929 86.2267C66.9141 87.2522 67.1747 88.4416 67.1747 89.7949C67.1747 91.0978 66.9141 92.2536 66.3929 93.2623C65.8802 94.2626 65.1405 95.0528 64.1738 95.6328C63.2071 96.2043 62.0555 96.4901 60.719 96.4901ZM60.7316 93.338C61.32 93.338 61.7782 93.1572 62.106 92.7958C62.4338 92.4259 62.665 91.9594 62.7995 91.3962C62.9339 90.8246 63.0012 90.2446 63.0012 89.6562C63.0012 89.0762 62.9381 88.5088 62.8121 87.9541C62.686 87.3993 62.459 86.9454 62.1312 86.5923C61.8034 86.2309 61.3368 86.0502 60.7316 86.0502C60.1432 86.0502 59.6809 86.2267 59.3447 86.5797C59.0168 86.9244 58.7815 87.3741 58.6386 87.9288C58.5041 88.4752 58.4368 89.051 58.4368 89.6562C58.4368 90.2278 58.4999 90.7994 58.626 91.371C58.7605 91.9342 58.9916 92.4049 59.3195 92.7832C59.6557 93.153 60.1264 93.338 60.7316 93.338Z" fill="white"/>
<path d="M69.3627 96.238V83.2006H73.5992V85.0288C73.7841 84.7262 74.0279 84.4278 74.3305 84.1336C74.6415 83.8394 75.0324 83.5957 75.5031 83.4023C75.9822 83.209 76.5622 83.1123 77.2431 83.1123C78.0248 83.1123 78.7603 83.2636 79.4496 83.5662C80.1473 83.8688 80.7147 84.3522 81.1518 85.0162C81.5889 85.6719 81.8074 86.5335 81.8074 87.601V96.238H77.4953V88.1684C77.4953 87.5968 77.3103 87.1681 76.9405 86.8823C76.5706 86.5881 76.1461 86.441 75.667 86.441C75.3476 86.441 75.0324 86.5041 74.7214 86.6302C74.4103 86.7478 74.154 86.9286 73.9522 87.1723C73.7505 87.4077 73.6496 87.7061 73.6496 88.0675V96.238H69.3627Z" fill="white"/>
<path d="M88.7324 83.2006V96.238H84.6345V83.2006H88.7324ZM88.745 78.0058V81.738H84.6219V78.0058H88.745Z" fill="white"/>
<path d="M100.171 86.1384H97.309L97.3216 92.5688C97.3216 92.8294 97.3595 93.0228 97.4351 93.1488C97.5192 93.2749 97.6327 93.359 97.7756 93.401C97.9184 93.443 98.095 93.4641 98.3051 93.4641H100.196V96.0488C100.02 96.1245 99.7467 96.2001 99.3769 96.2758C99.007 96.3598 98.4648 96.4019 97.7503 96.4019C96.4979 96.4019 95.527 96.2464 94.8377 95.9354C94.1569 95.6159 93.6819 95.183 93.4129 94.6367C93.1524 94.0819 93.0221 93.4557 93.0221 92.758V86.1384H90.9038V83.2006H93.1734L94.2703 79.2036H97.309V83.1754H100.171V86.1384Z" fill="white"/>
<path d="M107.928 96.4901C106.616 96.4901 105.477 96.2127 104.511 95.658C103.544 95.0948 102.792 94.313 102.254 93.3128C101.724 92.3041 101.459 91.1314 101.459 89.7949C101.459 88.4332 101.728 87.2396 102.266 86.2141C102.813 85.1802 103.574 84.3774 104.549 83.8058C105.524 83.2342 106.654 82.9484 107.94 82.9484C109.268 82.9484 110.412 83.2384 111.37 83.8184C112.337 84.39 113.08 85.1928 113.602 86.2267C114.123 87.2522 114.383 88.4416 114.383 89.7949C114.383 91.0978 114.123 92.2536 113.602 93.2623C113.089 94.2626 112.349 95.0528 111.382 95.6328C110.416 96.2043 109.264 96.4901 107.928 96.4901ZM107.94 93.338C108.529 93.338 108.987 93.1572 109.315 92.7958C109.642 92.4259 109.874 91.9594 110.008 91.3962C110.143 90.8246 110.21 90.2446 110.21 89.6562C110.21 89.0762 110.147 88.5088 110.021 87.9541C109.895 87.3993 109.668 86.9454 109.34 86.5923C109.012 86.2309 108.546 86.0502 107.94 86.0502C107.352 86.0502 106.89 86.2267 106.553 86.5797C106.226 86.9244 105.99 87.3741 105.847 87.9288C105.713 88.4752 105.646 89.051 105.646 89.6562C105.646 90.2278 105.709 90.7994 105.835 91.371C105.969 91.9342 106.2 92.4049 106.528 92.7832C106.864 93.153 107.335 93.338 107.94 93.338Z" fill="white"/>
<path d="M116.571 96.238V83.2006H120.707V86.5419C120.909 85.861 121.199 85.2516 121.577 84.7136C121.964 84.1673 122.439 83.7386 123.002 83.4275C123.565 83.1081 124.216 82.9484 124.956 82.9484C125.049 82.9484 125.128 82.9526 125.196 82.961C125.271 82.961 125.318 82.9694 125.334 82.9862V87.0588C125.292 87.042 125.238 87.0294 125.17 87.021C125.112 87.0126 125.049 87.0084 124.981 87.0084C124.158 86.9244 123.477 86.937 122.939 87.0462C122.409 87.1555 121.989 87.332 121.678 87.5758C121.375 87.8196 121.161 88.1096 121.035 88.4458C120.917 88.782 120.858 89.1477 120.858 89.5428V96.238H116.571Z" fill="white"/>
<path d="M131.287 83.2006V96.238H127.189V83.2006H131.287ZM131.299 78.0058V81.738H127.176V78.0058H131.299Z" fill="white"/>
<path d="M134.302 96.238V83.2006H138.539V85.0288C138.724 84.7262 138.968 84.4278 139.27 84.1336C139.581 83.8394 139.972 83.5957 140.443 83.4023C140.922 83.209 141.502 83.1123 142.183 83.1123C142.964 83.1123 143.7 83.2636 144.389 83.5662C145.087 83.8688 145.654 84.3522 146.091 85.0162C146.529 85.6719 146.747 86.5335 146.747 87.601V96.238H142.435V88.1684C142.435 87.5968 142.25 87.1681 141.88 86.8823C141.51 86.5881 141.086 86.441 140.607 86.441C140.287 86.441 139.972 86.5041 139.661 86.6302C139.35 86.7478 139.094 86.9286 138.892 87.1723C138.69 87.4077 138.589 87.7061 138.589 88.0675V96.238H134.302Z" fill="white"/>
<path d="M155.702 100.55C153.256 100.55 151.415 100.256 150.179 99.6675C148.952 99.0875 148.339 98.3478 148.339 97.4484C148.339 97.0113 148.456 96.6499 148.692 96.3641C148.927 96.0783 149.204 95.8513 149.524 95.6832C149.852 95.5151 150.146 95.3932 150.406 95.3175C150.675 95.2335 150.839 95.1788 150.898 95.1536C150.772 95.0864 150.57 94.9771 150.293 94.8258C150.015 94.6745 149.759 94.4601 149.524 94.1828C149.297 93.9054 149.183 93.5439 149.183 93.0984C149.183 92.6025 149.414 92.1486 149.877 91.7367C150.348 91.3164 151.058 91.0348 152.008 90.8919C151.108 90.48 150.432 89.9168 149.978 89.2023C149.524 88.4878 149.297 87.7775 149.297 87.0715C149.297 86.2057 149.583 85.4702 150.154 84.8649C150.734 84.2513 151.508 83.789 152.474 83.478C153.449 83.1586 154.525 82.9988 155.702 82.9988C156.618 82.9988 157.362 83.0955 157.934 83.2888C158.505 83.4738 159.035 83.7049 159.522 83.9823C159.741 83.8983 160.014 83.7932 160.342 83.6671C160.67 83.5326 161.023 83.3939 161.401 83.251C161.788 83.0997 162.166 82.9484 162.536 82.7971C162.914 82.6374 163.263 82.4945 163.582 82.3684L163.557 85.5332L161.325 85.861C161.393 86.0712 161.443 86.2939 161.477 86.5293C161.519 86.7562 161.54 86.9328 161.54 87.0588C161.54 87.7986 161.309 88.5046 160.846 89.1771C160.384 89.8496 159.699 90.4001 158.791 90.8288C157.883 91.2491 156.761 91.4593 155.425 91.4593C155.248 91.4593 155 91.4551 154.681 91.4467C154.361 91.4299 154.105 91.413 153.912 91.3962C153.601 91.4215 153.382 91.4677 153.256 91.5349C153.138 91.5938 153.079 91.6736 153.079 91.7745C153.079 91.9678 153.269 92.0897 153.647 92.1401C154.025 92.1822 154.567 92.2284 155.273 92.2788C155.525 92.2872 155.887 92.3041 156.358 92.3293C156.837 92.3545 157.358 92.3881 157.921 92.4301C159.628 92.5478 160.884 92.9597 161.691 93.6658C162.498 94.3719 162.902 95.2335 162.902 96.2506C162.902 97.4946 162.301 98.5201 161.099 99.3271C159.896 100.142 158.098 100.55 155.702 100.55ZM156.383 98.2301C157.316 98.2301 157.955 98.1293 158.299 97.9275C158.644 97.7258 158.816 97.4484 158.816 97.0954C158.816 96.7591 158.661 96.4859 158.35 96.2758C158.039 96.0656 157.598 95.9438 157.026 95.9101L154.353 95.7336C153.924 95.7084 153.575 95.7546 153.306 95.8723C153.037 95.99 152.836 96.1455 152.701 96.3388C152.575 96.5322 152.512 96.7339 152.512 96.9441C152.512 97.4232 152.827 97.7552 153.458 97.9401C154.088 98.1335 155.063 98.2301 156.383 98.2301ZM155.551 89.1393C156.131 89.1393 156.597 88.9628 156.95 88.6097C157.312 88.2567 157.492 87.7901 157.492 87.2102C157.492 86.6217 157.312 86.1342 156.95 85.7475C156.597 85.3609 156.131 85.1675 155.551 85.1675C154.971 85.1675 154.5 85.3651 154.139 85.7602C153.785 86.1468 153.609 86.6302 153.609 87.2102C153.609 87.7817 153.785 88.2483 154.139 88.6097C154.492 88.9628 154.962 89.1393 155.551 89.1393Z" fill="white"/>
<path d="M175.309 96.4901C173.536 96.4901 172.161 95.8765 171.186 94.6493C170.211 93.422 169.724 91.7535 169.724 89.6436C169.724 88.2735 169.921 87.0883 170.316 86.088C170.72 85.0877 171.304 84.3144 172.069 83.768C172.834 83.2216 173.763 82.9484 174.855 82.9484C175.259 82.9484 175.646 82.9904 176.015 83.0745C176.385 83.1586 176.734 83.2804 177.062 83.4402C177.398 83.5915 177.697 83.7848 177.957 84.0202C178.226 84.2471 178.449 84.5161 178.625 84.8271V77.5015H182.925V96.238H179.861L179.357 93.5649C179.222 93.9684 179.046 94.3509 178.827 94.7123C178.609 95.0654 178.335 95.3764 178.008 95.6454C177.68 95.9059 177.293 96.1119 176.848 96.2632C176.402 96.4145 175.889 96.4901 175.309 96.4901ZM176.293 93.4514C177.041 93.4514 177.617 93.1657 178.02 92.5941C178.424 92.0225 178.625 91.0306 178.625 89.6184C178.625 88.7862 178.533 88.1054 178.348 87.5758C178.171 87.0378 177.911 86.6428 177.566 86.3906C177.222 86.1384 176.801 86.0123 176.305 86.0123C175.625 86.0123 175.053 86.2855 174.591 86.8319C174.128 87.3699 173.897 88.2987 173.897 89.6184C173.897 90.9801 174.12 91.9594 174.565 92.5562C175.011 93.153 175.587 93.4514 176.293 93.4514Z" fill="white"/>
<path d="M189.617 96.4901C188.802 96.4901 188.054 96.3346 187.373 96.0236C186.7 95.7042 186.162 95.2419 185.759 94.6367C185.364 94.0314 185.166 93.2917 185.166 92.4175C185.166 90.997 185.713 89.9042 186.805 89.1393C187.906 88.3744 189.625 87.9877 191.962 87.9793L193.286 87.9667V87.2984C193.286 86.7857 193.139 86.4032 192.845 86.151C192.559 85.8904 192.105 85.7644 191.483 85.7728C191.054 85.7812 190.617 85.8862 190.172 86.088C189.726 86.2813 189.407 86.6428 189.214 87.1723H185.696C185.746 86.1888 186.036 85.3861 186.566 84.7641C187.104 84.142 187.814 83.6839 188.697 83.3897C189.588 83.0955 190.584 82.9484 191.685 82.9484C193.105 82.9484 194.232 83.1207 195.064 83.4654C195.896 83.8016 196.493 84.2765 196.854 84.8902C197.216 85.4954 197.397 86.2099 197.397 87.0336V96.238H193.828L193.463 94.0819C193.042 94.9981 192.521 95.6285 191.899 95.9732C191.286 96.3178 190.525 96.4901 189.617 96.4901ZM191.105 93.7288C191.391 93.7288 191.664 93.6784 191.924 93.5775C192.185 93.4767 192.416 93.338 192.618 93.1614C192.82 92.9765 192.979 92.7748 193.097 92.5562C193.215 92.3377 193.278 92.1023 193.286 91.8501V90.0723L192.227 90.0849C191.79 90.0849 191.336 90.1438 190.865 90.2615C190.403 90.3791 190.012 90.5767 189.693 90.8541C189.373 91.123 189.214 91.4971 189.214 91.9762C189.214 92.5226 189.398 92.9513 189.768 93.2623C190.147 93.5733 190.592 93.7288 191.105 93.7288Z" fill="white"/>
<path d="M200.35 96.238V83.2006H204.587V85.0288C204.772 84.7262 205.015 84.4278 205.318 84.1336C205.629 83.8394 206.02 83.5957 206.491 83.4023C206.97 83.209 207.55 83.1123 208.231 83.1123C209.012 83.1123 209.748 83.2636 210.437 83.5662C211.135 83.8688 211.702 84.3522 212.139 85.0162C212.576 85.6719 212.795 86.5335 212.795 87.601V96.238H208.483V88.1684C208.483 87.5968 208.298 87.1681 207.928 86.8823C207.558 86.5881 207.134 86.441 206.654 86.441C206.335 86.441 206.02 86.5041 205.709 86.6302C205.398 86.7478 205.141 86.9286 204.94 87.1723C204.738 87.4077 204.637 87.7061 204.637 88.0675V96.238H200.35Z" fill="white"/>
<path d="M221.059 96.238V78.0058H234.058L234.033 81.5867H225.384V85.3062H232.76V88.8115H225.358V92.6193L234.134 92.6319V96.238H221.059Z" fill="white"/>
<path d="M248.079 83.2006L243.086 96.238H240.173L235.193 83.2006H239.038L241.61 90.6775H241.661L244.17 83.2006H248.079Z" fill="white"/>
<path d="M252.956 96.4901C252.141 96.4901 251.392 96.3346 250.712 96.0236C250.039 95.7042 249.501 95.2419 249.098 94.6367C248.703 94.0314 248.505 93.2917 248.505 92.4175C248.505 90.997 249.051 89.9042 250.144 89.1393C251.245 88.3744 252.964 87.9877 255.301 87.9793L256.625 87.9667V87.2984C256.625 86.7857 256.478 86.4032 256.184 86.151C255.898 85.8904 255.444 85.7644 254.822 85.7728C254.393 85.7812 253.956 85.8862 253.511 86.088C253.065 86.2813 252.746 86.6428 252.552 87.1723H249.035C249.085 86.1888 249.375 85.3861 249.905 84.7641C250.443 84.142 251.153 83.6839 252.035 83.3897C252.927 83.0955 253.923 82.9484 255.024 82.9484C256.444 82.9484 257.571 83.1207 258.403 83.4654C259.235 83.8016 259.832 84.2765 260.193 84.8902C260.555 85.4954 260.735 86.2099 260.735 87.0336V96.238H257.167L256.802 94.0819C256.381 94.9981 255.86 95.6285 255.238 95.9732C254.624 96.3178 253.864 96.4901 252.956 96.4901ZM254.444 93.7288C254.73 93.7288 255.003 93.6784 255.263 93.5775C255.524 93.4767 255.755 93.338 255.957 93.1614C256.159 92.9765 256.318 92.7748 256.436 92.5562C256.554 92.3377 256.617 92.1023 256.625 91.8501V90.0723L255.566 90.0849C255.129 90.0849 254.675 90.1438 254.204 90.2615C253.742 90.3791 253.351 90.5767 253.032 90.8541C252.712 91.123 252.552 91.4971 252.552 91.9762C252.552 92.5226 252.737 92.9513 253.107 93.2623C253.486 93.5733 253.931 93.7288 254.444 93.7288Z" fill="white"/>
<path d="M268.241 96.4901C267.156 96.4901 266.303 96.3683 265.681 96.1245C265.068 95.8807 264.618 95.5655 264.332 95.1788C264.046 94.7838 263.866 94.3467 263.79 93.8675C263.723 93.3884 263.689 92.9135 263.689 92.4428V77.5015H267.888V91.888C267.888 92.283 267.98 92.6277 268.165 92.9219C268.35 93.2077 268.749 93.3884 269.363 93.4641L269.93 93.5019V96.1371C269.661 96.2296 269.384 96.3094 269.098 96.3767C268.812 96.4523 268.527 96.4901 268.241 96.4901Z" fill="white"/>
<path d="M276.878 96.4901C276.315 96.4901 275.743 96.3977 275.163 96.2127C274.583 96.0278 274.049 95.7588 273.562 95.4058C273.074 95.0443 272.679 94.6072 272.377 94.0945C272.082 93.5733 271.935 92.9765 271.935 92.3041V83.2006H276.235V91.7241C276.235 92.2116 276.403 92.6193 276.739 92.9471C277.075 93.2665 277.559 93.4262 278.189 93.4262C278.794 93.4262 279.274 93.2707 279.627 92.9597C279.98 92.6403 280.156 92.22 280.156 91.6988V83.2006H284.418V96.238H281.215L280.711 93.6028C280.551 94.4181 280.257 95.0359 279.828 95.4562C279.4 95.8681 278.916 96.1413 278.378 96.2758C277.849 96.4187 277.349 96.4901 276.878 96.4901Z" fill="white"/>
<path d="M290.954 96.4901C290.139 96.4901 289.391 96.3346 288.71 96.0236C288.038 95.7042 287.5 95.2419 287.096 94.6367C286.701 94.0314 286.503 93.2917 286.503 92.4175C286.503 90.997 287.05 89.9042 288.143 89.1393C289.244 88.3744 290.963 87.9877 293.3 87.9793L294.624 87.9667V87.2984C294.624 86.7857 294.476 86.4032 294.182 86.151C293.896 85.8904 293.442 85.7644 292.82 85.7728C292.392 85.7812 291.955 85.8862 291.509 86.088C291.064 86.2813 290.744 86.6428 290.551 87.1723H287.033C287.083 86.1888 287.373 85.3861 287.903 84.7641C288.441 84.142 289.151 83.6839 290.034 83.3897C290.925 83.0955 291.921 82.9484 293.022 82.9484C294.443 82.9484 295.569 83.1207 296.401 83.4654C297.233 83.8016 297.83 84.2765 298.192 84.8902C298.553 85.4954 298.734 86.2099 298.734 87.0336V96.238H295.166L294.8 94.0819C294.38 94.9981 293.859 95.6285 293.237 95.9732C292.623 96.3178 291.862 96.4901 290.954 96.4901ZM292.442 93.7288C292.728 93.7288 293.001 93.6784 293.262 93.5775C293.522 93.4767 293.753 93.338 293.955 93.1614C294.157 92.9765 294.317 92.7748 294.434 92.5562C294.552 92.3377 294.615 92.1023 294.624 91.8501V90.0723L293.564 90.0849C293.127 90.0849 292.673 90.1438 292.203 90.2615C291.74 90.3791 291.349 90.5767 291.03 90.8541C290.711 91.123 290.551 91.4971 290.551 91.9762C290.551 92.5226 290.736 92.9513 291.106 93.2623C291.484 93.5733 291.929 93.7288 292.442 93.7288Z" fill="white"/>
<path d="M306.924 96.4901C306.016 96.4901 305.129 96.3388 304.263 96.0362C303.397 95.7336 302.658 95.2503 302.044 94.5862C301.43 93.9222 301.035 93.0564 300.859 91.9888H304.541C304.65 92.4343 304.847 92.7748 305.133 93.0101C305.419 93.2455 305.726 93.4052 306.054 93.4893C306.381 93.5733 306.663 93.6154 306.898 93.6154C307.52 93.6154 308.025 93.5271 308.411 93.3506C308.798 93.1741 308.991 92.9051 308.991 92.5436C308.991 92.241 308.87 92.0057 308.626 91.8375C308.39 91.661 307.979 91.5223 307.39 91.4214L305.272 91.0306C304.078 90.8036 303.112 90.3875 302.372 89.7823C301.641 89.1687 301.271 88.3029 301.262 87.1849C301.254 86.3864 301.468 85.6677 301.905 85.0288C302.342 84.39 302.986 83.8857 303.835 83.5158C304.684 83.1375 305.726 82.9484 306.961 82.9484C308.651 82.9484 309.996 83.3183 310.996 84.058C311.997 84.7977 312.501 85.819 312.509 87.1219H308.979C308.886 86.6764 308.647 86.3402 308.26 86.1132C307.882 85.8778 307.428 85.7602 306.898 85.7602C306.36 85.7602 305.907 85.8526 305.537 86.0375C305.175 86.2141 304.995 86.483 304.995 86.8445C304.995 87.1219 305.154 87.3446 305.474 87.5128C305.793 87.6809 306.302 87.8322 306.999 87.9667L308.903 88.3575C309.685 88.5509 310.32 88.8115 310.807 89.1393C311.295 89.4587 311.669 89.8075 311.929 90.1858C312.198 90.5641 312.383 90.9423 312.484 91.3206C312.585 91.6904 312.635 92.0183 312.635 92.3041C312.635 93.2035 312.387 93.9642 311.891 94.5862C311.396 95.2083 310.715 95.6832 309.849 96.011C308.991 96.3304 308.016 96.4901 306.924 96.4901Z" fill="white"/>
<path d="M319.161 83.2006V96.238H315.063V83.2006H319.161ZM319.174 78.0058V81.738H315.051V78.0058H319.174Z" fill="white"/>
<path d="M90.9839 53.5064V10.8386H98.7912L113.195 37.0445L127.539 10.8386H135.225V53.5064H126.692V27.4821L115.677 47.0911H110.411L99.4569 27.6636V53.5064H90.9839Z" fill="white"/>
<path d="M163.972 54.1721C159.775 54.1721 156.084 53.2643 152.896 51.4486C149.749 49.5926 147.288 47.0306 145.513 43.7624C143.778 40.4539 142.91 36.5805 142.91 32.1422C142.91 27.704 143.778 23.8508 145.513 20.5826C147.288 17.2741 149.749 14.712 152.896 12.8963C156.043 11.0807 159.735 10.1729 163.972 10.1729C168.208 10.1729 171.9 11.0807 175.047 12.8963C178.235 14.712 180.696 17.2741 182.431 20.5826C184.206 23.8508 185.094 27.6838 185.094 32.0817C185.094 36.52 184.206 40.3933 182.431 43.7019C180.696 47.0104 178.235 49.5926 175.047 51.4486C171.9 53.2643 168.208 54.1721 163.972 54.1721ZM163.972 46.1833C167.522 46.1833 170.286 44.9526 172.263 42.4914C174.28 39.9899 175.289 36.5401 175.289 32.1422C175.289 27.704 174.301 24.2744 172.324 21.8535C170.347 19.3923 167.563 18.1617 163.972 18.1617C160.461 18.1617 157.698 19.3923 155.68 21.8535C153.703 24.2744 152.715 27.704 152.715 32.1422C152.715 36.5401 153.703 39.9899 155.68 42.4914C157.698 44.9526 160.461 46.1833 163.972 46.1833Z" fill="white"/>
<path d="M192.653 53.5064V10.8386H199.613L220.916 38.0128V10.8386H229.632V53.5064H222.732L201.368 26.2716V53.5064H192.653Z" fill="white"/>
<path d="M238.524 53.5064V10.8386H267.756V18.1617H247.481V28.1478H266.424V35.5314H247.481V46.1833H267.756V53.5064H238.524Z" fill="white"/>
<path d="M289.33 53.5064L270.145 10.8386H280.191L293.385 41.4626L306.579 10.8386H316.202L297.016 53.5064H289.33Z" fill="white"/>
<path d="M0.833008 8.77734H20.0646L49.3927 58.97H30.1611L0.833008 8.77734Z" fill="white"/>
<path d="M78.7202 8.77734H59.4887L30.1605 58.97H49.3921L78.7202 8.77734Z" fill="white"/>
<path d="M49.916 8.77734H30.6845L15.7369 34.3563H34.9684L49.916 8.77734Z" fill="#FCCC00"/>
<path d="M24.8716 0.549805H5.64004L0.826145 8.77747H20.0577L24.8716 0.549805Z" fill="white"/>
</svg>
