<svg width="24" height="24" viewBox="0 0 24 24" fill="none" xmlns="http://www.w3.org/2000/svg">
<path d="M20.3571 3.53571C22.6071 5.78571 24 8.73214 24 11.9464C24 18.4821 18.5357 23.8393 11.9464 23.8393C9.96429 23.8393 8.03571 23.3036 6.26786 22.3929L0 24L1.66071 17.8393C0.642857 16.0714 0.0535714 14.0357 0.0535714 11.8929C0.0535714 5.35714 5.41071 0 11.9464 0C15.1607 0 18.1607 1.28571 20.3571 3.53571ZM11.9464 21.8036C17.4107 21.8036 21.9643 17.3571 21.9643 11.9464C21.9643 9.26786 20.8393 6.80357 18.9643 4.92857C17.0893 3.05357 14.625 2.03571 12 2.03571C6.53571 2.03571 2.08929 6.48214 2.08929 11.8929C2.08929 13.7679 2.625 15.5893 3.58929 17.1964L3.85714 17.5714L2.83929 21.2143L6.58929 20.1964L6.91071 20.4107C8.46429 21.3214 10.1786 21.8036 11.9464 21.8036ZM17.4107 14.4107C17.6786 14.5714 17.8929 14.625 17.9464 14.7857C18.0536 14.8929 18.0536 15.4821 17.7857 16.1786C17.5179 16.875 16.3393 17.5179 15.8036 17.5714C14.8393 17.7321 14.0893 17.6786 12.2143 16.8214C9.21429 15.5357 7.28571 12.5357 7.125 12.375C6.96429 12.1607 5.94643 10.7679 5.94643 9.26786C5.94643 7.82143 6.69643 7.125 6.96429 6.80357C7.23214 6.48214 7.55357 6.42857 7.76786 6.42857C7.92857 6.42857 8.14286 6.42857 8.30357 6.42857C8.51786 6.42857 8.73214 6.375 9 6.96429C9.21429 7.55357 9.85714 9 9.91071 9.16071C9.96429 9.32143 10.0179 9.48214 9.91071 9.69643C9.375 10.8214 8.73214 10.7679 9.05357 11.3036C10.2321 13.2857 11.3571 13.9821 13.125 14.8393C13.3929 15 13.5536 14.9464 13.7679 14.7857C13.9286 14.5714 14.5179 13.875 14.6786 13.6071C14.8929 13.2857 15.1071 13.3393 15.375 13.4464C15.6429 13.5536 17.0893 14.25 17.4107 14.4107Z" fill="#10172F"/>
</svg>
