<svg width="80" height="80" viewBox="0 0 80 80" fill="none" xmlns="http://www.w3.org/2000/svg">
<rect width="80" height="80" rx="18" fill="#374E9D"/>
<g opacity="0.3">
<path d="M45.686 37.9872C47.0382 38.4446 48.4877 38.6924 49.9954 38.6924C50.798 38.6924 51.5858 38.6225 52.3503 38.4869V36.2338C52.3503 33.1674 51.1602 30.3774 49.2162 28.3021C49.0912 31.8269 47.8534 35.2162 45.686 37.9872Z" fill="white"/>
<path d="M59.474 44.6302V36.2338C59.474 31.2298 57.5268 26.5265 53.9904 22.9911C52.5186 21.5161 50.8224 20.3059 48.9482 19.3911C46.3753 18.1364 43.6139 17.5 40.7402 17.5C38.4214 17.5 36.1534 17.9214 33.9998 18.7515C30.5078 20.0994 27.5261 22.4362 25.3767 25.5121C23.1722 28.6674 22.0075 32.3744 22.0075 36.2327V44.6705C20.7634 45.9845 20 47.7591 20 49.7105C20 52.3586 21.4029 54.6816 23.5068 55.9702C24.1051 56.3366 24.7605 56.6204 25.4561 56.8035C25.3365 56.0348 25.274 55.2481 25.274 54.4466V42.6725C25.2729 42.6725 25.2729 42.6725 25.2719 42.6735V36.2348C25.2719 33.0488 26.2333 29.9878 28.0524 27.3841C29.828 24.8429 32.2908 22.9127 35.174 21.7999C36.9507 21.1148 38.8238 20.7675 40.7392 20.7675C43.1131 20.7675 45.3927 21.2927 47.5156 22.3272C49.0626 23.0821 50.4624 24.0816 51.6789 25.3004C54.5992 28.2206 56.2065 32.1033 56.2065 36.2348V47.3853C56.2065 47.5028 56.2192 47.6172 56.2435 47.7284V54.4487C56.2435 55.2502 56.1821 56.0369 56.0614 56.8056C56.7581 56.6225 57.4125 56.3387 58.0107 55.9724C60.1146 54.6827 61.5175 52.3607 61.5175 49.7126C61.5207 47.74 60.7414 45.9495 59.474 44.6302Z" fill="white"/>
<path d="M43.2253 40.5262C40.2448 43.0145 36.4658 44.4026 32.5281 44.4026C31.3835 44.4026 30.2431 44.2861 29.1313 44.0553V53.6991C29.1313 58.5601 33.0723 62.5 37.9323 62.5H43.5483C47.4151 62.5 50.6975 60.0054 51.8791 56.5378H43.6552C43.0835 57.5564 41.9929 58.2457 40.7413 58.2457C38.8958 58.2457 37.4008 56.7495 37.4008 54.9051C37.4008 53.0595 38.8969 51.5645 40.7413 51.5645C41.9929 51.5645 43.0835 52.2538 43.6552 53.2724H52.3503V41.7905C51.5742 41.9017 50.7843 41.9567 49.9955 41.9567C47.6438 41.9567 45.3441 41.4686 43.2253 40.5262ZM37.1636 46.9607C37.1583 47.0126 37.1498 47.0666 37.1403 47.1185C37.1297 47.1704 37.117 47.2222 37.1011 47.2741C37.0863 47.3239 37.0672 47.3747 37.0471 47.4245C37.027 47.4732 37.0037 47.523 36.9783 47.5695C36.9529 47.6161 36.9253 47.6627 36.8968 47.7061C36.8671 47.7506 36.8343 47.794 36.8004 47.8353C36.7665 47.8755 36.7305 47.9158 36.6935 47.9539C36.6564 47.992 36.6151 48.028 36.5738 48.0619C36.5315 48.0958 36.4891 48.1275 36.4446 48.1572C36.4012 48.1868 36.3546 48.2144 36.3081 48.2398C36.2615 48.2641 36.2117 48.2874 36.163 48.3075C36.1143 48.3277 36.0645 48.3467 36.0126 48.3615C35.9618 48.3774 35.9099 48.3912 35.857 48.4018C35.8051 48.4124 35.7511 48.4198 35.6992 48.4251C35.6463 48.4314 35.5923 48.4335 35.5383 48.4335C35.4853 48.4335 35.4313 48.4314 35.3784 48.4251C35.3255 48.4198 35.2725 48.4113 35.2206 48.4018C35.1688 48.3912 35.1169 48.3785 35.0661 48.3615C35.0152 48.3467 34.9644 48.3277 34.9146 48.3075C34.8659 48.2885 34.8183 48.2652 34.7706 48.2398C34.7241 48.2144 34.6764 48.1868 34.633 48.1572C34.5896 48.1275 34.5451 48.0958 34.5049 48.0619C34.4625 48.028 34.4233 47.992 34.3852 47.9539C34.3471 47.9158 34.3111 47.8766 34.2772 47.8353C34.2433 47.793 34.2116 47.7506 34.1819 47.7061C34.1523 47.6627 34.1248 47.6161 34.1004 47.5695C34.075 47.523 34.0528 47.4732 34.0316 47.4245C34.0115 47.3758 33.9924 47.325 33.9776 47.2741C33.9628 47.2233 33.949 47.1714 33.9384 47.1185C33.9268 47.0666 33.9193 47.0126 33.9141 46.9607C33.9088 46.9067 33.9056 46.8527 33.9056 46.7998C33.9056 46.7468 33.9088 46.6928 33.9141 46.6399C33.9193 46.587 33.9278 46.534 33.9384 46.4821C33.949 46.4302 33.9617 46.3773 33.9776 46.3275C33.9924 46.2767 34.0115 46.2259 34.0316 46.1761C34.0517 46.1274 34.0739 46.0777 34.1004 46.0321C34.1248 45.9855 34.1523 45.9379 34.1819 45.8945C34.2116 45.85 34.2433 45.8066 34.2772 45.7664C34.3111 45.724 34.3482 45.6848 34.3852 45.6467C34.4223 45.6086 34.4625 45.5726 34.5049 45.5387C34.5462 45.5048 34.5896 45.4731 34.633 45.4434C34.6764 45.4138 34.7241 45.3862 34.7706 45.3608C34.8172 45.3365 34.8659 45.3142 34.9146 45.2931C34.9633 45.273 35.0142 45.2539 35.0661 45.2391C35.1169 45.2242 35.1688 45.2105 35.2206 45.1988C35.2725 45.1882 35.3255 45.1808 35.3784 45.1755C35.4843 45.1639 35.5923 45.1639 35.7003 45.1755C35.7532 45.1808 35.8062 45.1893 35.8581 45.1988C35.9099 45.2105 35.9618 45.2232 36.0137 45.2391C36.0645 45.2539 36.1143 45.273 36.1641 45.2931C36.2128 45.3132 36.2625 45.3354 36.3091 45.3608C36.3557 45.3862 36.4023 45.4138 36.4457 45.4434C36.4902 45.4731 36.5346 45.5048 36.5749 45.5387C36.6151 45.5726 36.6564 45.6097 36.6945 45.6467C36.7326 45.6838 36.7676 45.724 36.8015 45.7664C36.8353 45.8066 36.8682 45.85 36.8978 45.8945C36.9264 45.9379 36.9539 45.9855 36.9793 46.0321C37.0037 46.0777 37.027 46.1274 37.0482 46.1761C37.0683 46.2248 37.0873 46.2757 37.1022 46.3275C37.117 46.3773 37.1308 46.4302 37.1413 46.4821C37.1519 46.534 37.1593 46.587 37.1646 46.6399C37.171 46.6928 37.1731 46.7468 37.1731 46.7998C37.171 46.8527 37.1699 46.9067 37.1636 46.9607ZM47.5676 46.9607C47.5612 47.0126 47.5538 47.0666 47.5432 47.1185C47.5326 47.1704 47.5199 47.2222 47.5041 47.2741C47.4892 47.3239 47.4702 47.3747 47.4501 47.4245C47.4299 47.4732 47.4077 47.523 47.3812 47.5695C47.3569 47.6161 47.3293 47.6627 47.2997 47.7061C47.2701 47.7506 47.2383 47.794 47.2044 47.8353C47.1705 47.8755 47.1345 47.9158 47.0964 47.9539C47.0583 47.992 47.0191 48.028 46.9768 48.0619C46.9355 48.0958 46.8921 48.1275 46.8486 48.1572C46.8042 48.1868 46.7576 48.2144 46.711 48.2398C46.6644 48.2641 46.6157 48.2874 46.567 48.3075C46.5172 48.3277 46.4675 48.3467 46.4156 48.3615C46.3648 48.3774 46.3129 48.3912 46.2599 48.4018C46.2081 48.4124 46.1551 48.4198 46.1022 48.4251C46.0492 48.4314 45.9952 48.4335 45.9423 48.4335C45.8883 48.4335 45.8343 48.4314 45.7813 48.4251C45.7284 48.4198 45.6755 48.4113 45.6236 48.4018C45.5717 48.3912 45.5198 48.3785 45.469 48.3615C45.4182 48.3467 45.3684 48.3277 45.3186 48.3075C45.2699 48.2885 45.2202 48.2652 45.1736 48.2398C45.127 48.2144 45.0804 48.1868 45.037 48.1572C44.9925 48.1275 44.9481 48.0958 44.9078 48.0619C44.8665 48.028 44.8263 47.992 44.7882 47.9539C44.7501 47.9158 44.7151 47.8766 44.6812 47.8353C44.6473 47.793 44.6145 47.7506 44.5849 47.7061C44.5563 47.6627 44.5277 47.6161 44.5033 47.5695C44.479 47.523 44.4557 47.4732 44.4345 47.4245C44.4144 47.3758 44.3953 47.325 44.3805 47.2741C44.3657 47.2233 44.3519 47.1714 44.3413 47.1185C44.3308 47.0666 44.3233 47.0126 44.3181 46.9607C44.3117 46.9067 44.3096 46.8527 44.3096 46.7998C44.3096 46.7468 44.3117 46.6928 44.3181 46.6399C44.3233 46.587 44.3318 46.534 44.3413 46.4821C44.3519 46.4302 44.3646 46.3773 44.3805 46.3275C44.3953 46.2767 44.4144 46.2259 44.4345 46.1761C44.4546 46.1274 44.4779 46.0777 44.5033 46.0321C44.5277 45.9855 44.5563 45.9379 44.5849 45.8945C44.6145 45.85 44.6473 45.8066 44.6812 45.7664C44.7151 45.724 44.7511 45.6848 44.7882 45.6467C44.8252 45.6086 44.8665 45.5726 44.9078 45.5387C44.9481 45.5048 44.9925 45.4731 45.037 45.4434C45.0815 45.4138 45.127 45.3862 45.1736 45.3608C45.2202 45.3365 45.2699 45.3142 45.3186 45.2931C45.3673 45.273 45.4182 45.2539 45.469 45.2391C45.5198 45.2242 45.5717 45.2105 45.6236 45.1988C45.6755 45.1882 45.7284 45.1808 45.7813 45.1755C45.8883 45.1639 45.9963 45.1639 46.1032 45.1755C46.1562 45.1808 46.2091 45.1893 46.261 45.1988C46.3129 45.2105 46.3648 45.2232 46.4166 45.2391C46.4685 45.255 46.5172 45.273 46.5681 45.2931C46.6168 45.3132 46.6655 45.3354 46.7121 45.3608C46.7586 45.3862 46.8052 45.4138 46.8497 45.4434C46.8942 45.4731 46.9376 45.5048 46.9778 45.5387C47.0202 45.5726 47.0593 45.6097 47.0975 45.6467C47.1356 45.6838 47.1716 45.724 47.2055 45.7664C47.2393 45.8066 47.2711 45.85 47.3008 45.8945C47.3304 45.9379 47.3579 45.9855 47.3823 46.0321C47.4077 46.0777 47.4299 46.1274 47.4511 46.1761C47.4712 46.2248 47.4903 46.2757 47.5051 46.3275C47.5199 46.3773 47.5337 46.4302 47.5443 46.4821C47.5559 46.534 47.5623 46.587 47.5686 46.6399C47.5739 46.6928 47.5761 46.7468 47.5761 46.7998C47.575 46.8527 47.5729 46.9067 47.5676 46.9607Z" fill="white"/>
<path d="M42.6663 36.5186C44.7193 34.1606 45.9613 31.0784 45.9613 27.7071C45.9613 27.0581 45.9148 26.4196 45.8258 25.7949C44.2905 25.0463 42.5646 24.6249 40.7403 24.6249C39.2675 24.6249 37.8592 24.8991 36.5632 25.3989C32.2146 27.0761 29.1313 31.2944 29.1313 36.2338V40.7042C30.2166 40.9879 31.3538 41.1383 32.5281 41.1383C36.5759 41.1383 40.2035 39.3489 42.6663 36.5186Z" fill="white"/>
</g>
<path d="M43.186 40.4872C44.5382 40.9446 45.9877 41.1924 47.4954 41.1924C48.298 41.1924 49.0858 41.1225 49.8503 40.9869V38.7338C49.8503 35.6674 48.6602 32.8774 46.7162 30.8021C46.5912 34.3269 45.3534 37.7162 43.186 40.4872Z" fill="white"/>
<path d="M56.974 47.1302V38.7338C56.974 33.7298 55.0268 29.0265 51.4904 25.4911C50.0186 24.0161 48.3224 22.8059 46.4482 21.8911C43.8753 20.6364 41.1139 20 38.2402 20C35.9214 20 33.6534 20.4214 31.4998 21.2515C28.0078 22.5994 25.0261 24.9362 22.8767 28.0121C20.6722 31.1674 19.5075 34.8744 19.5075 38.7327V47.1705C18.2634 48.4845 17.5 50.2591 17.5 52.2105C17.5 54.8586 18.9029 57.1816 21.0068 58.4702C21.6051 58.8366 22.2605 59.1204 22.9561 59.3035C22.8365 58.5348 22.774 57.7481 22.774 56.9466V45.1725C22.7729 45.1725 22.7729 45.1725 22.7719 45.1735V38.7348C22.7719 35.5488 23.7333 32.4878 25.5524 29.8841C27.328 27.3429 29.7908 25.4127 32.674 24.2999C34.4507 23.6148 36.3238 23.2675 38.2392 23.2675C40.6131 23.2675 42.8927 23.7927 45.0156 24.8272C46.5626 25.5821 47.9624 26.5816 49.1789 27.8004C52.0992 30.7206 53.7065 34.6033 53.7065 38.7348V49.8853C53.7065 50.0028 53.7192 50.1172 53.7435 50.2284V56.9487C53.7435 57.7502 53.6821 58.5369 53.5614 59.3056C54.2581 59.1225 54.9125 58.8387 55.5107 58.4724C57.6146 57.1827 59.0175 54.8607 59.0175 52.2126C59.0207 50.24 58.2414 48.4495 56.974 47.1302Z" fill="white"/>
<path d="M40.7253 43.0262C37.7448 45.5145 33.9658 46.9026 30.0281 46.9026C28.8835 46.9026 27.7431 46.7861 26.6313 46.5553V56.1991C26.6313 61.0601 30.5723 65 35.4323 65H41.0483C44.9151 65 48.1975 62.5054 49.3791 59.0378H41.1552C40.5835 60.0564 39.4929 60.7457 38.2413 60.7457C36.3958 60.7457 34.9008 59.2495 34.9008 57.4051C34.9008 55.5595 36.3969 54.0645 38.2413 54.0645C39.4929 54.0645 40.5835 54.7538 41.1552 55.7724H49.8503V44.2905C49.0742 44.4017 48.2843 44.4567 47.4955 44.4567C45.1438 44.4567 42.8441 43.9686 40.7253 43.0262ZM34.6636 49.4607C34.6583 49.5126 34.6498 49.5666 34.6403 49.6185C34.6297 49.6704 34.617 49.7222 34.6011 49.7741C34.5863 49.8239 34.5672 49.8747 34.5471 49.9245C34.527 49.9732 34.5037 50.023 34.4783 50.0695C34.4529 50.1161 34.4253 50.1627 34.3968 50.2061C34.3671 50.2506 34.3343 50.294 34.3004 50.3353C34.2665 50.3755 34.2305 50.4158 34.1935 50.4539C34.1564 50.492 34.1151 50.528 34.0738 50.5619C34.0315 50.5958 33.9891 50.6275 33.9446 50.6572C33.9012 50.6868 33.8546 50.7144 33.8081 50.7398C33.7615 50.7641 33.7117 50.7874 33.663 50.8075C33.6143 50.8277 33.5645 50.8467 33.5126 50.8615C33.4618 50.8774 33.4099 50.8912 33.357 50.9018C33.3051 50.9124 33.2511 50.9198 33.1992 50.9251C33.1463 50.9314 33.0923 50.9335 33.0383 50.9335C32.9853 50.9335 32.9313 50.9314 32.8784 50.9251C32.8255 50.9198 32.7725 50.9113 32.7206 50.9018C32.6688 50.8912 32.6169 50.8785 32.5661 50.8615C32.5152 50.8467 32.4644 50.8277 32.4146 50.8075C32.3659 50.7885 32.3183 50.7652 32.2706 50.7398C32.2241 50.7144 32.1764 50.6868 32.133 50.6572C32.0896 50.6275 32.0451 50.5958 32.0049 50.5619C31.9625 50.528 31.9233 50.492 31.8852 50.4539C31.8471 50.4158 31.8111 50.3766 31.7772 50.3353C31.7433 50.293 31.7116 50.2506 31.6819 50.2061C31.6523 50.1627 31.6248 50.1161 31.6004 50.0695C31.575 50.023 31.5528 49.9732 31.5316 49.9245C31.5115 49.8758 31.4924 49.825 31.4776 49.7741C31.4628 49.7233 31.449 49.6714 31.4384 49.6185C31.4268 49.5666 31.4193 49.5126 31.4141 49.4607C31.4088 49.4067 31.4056 49.3527 31.4056 49.2998C31.4056 49.2468 31.4088 49.1928 31.4141 49.1399C31.4193 49.087 31.4278 49.034 31.4384 48.9821C31.449 48.9302 31.4617 48.8773 31.4776 48.8275C31.4924 48.7767 31.5115 48.7259 31.5316 48.6761C31.5517 48.6274 31.5739 48.5777 31.6004 48.5321C31.6248 48.4855 31.6523 48.4379 31.6819 48.3945C31.7116 48.35 31.7433 48.3066 31.7772 48.2664C31.8111 48.224 31.8482 48.1848 31.8852 48.1467C31.9223 48.1086 31.9625 48.0726 32.0049 48.0387C32.0462 48.0048 32.0896 47.9731 32.133 47.9434C32.1764 47.9138 32.2241 47.8862 32.2706 47.8608C32.3172 47.8365 32.3659 47.8142 32.4146 47.7931C32.4633 47.773 32.5142 47.7539 32.5661 47.7391C32.6169 47.7242 32.6688 47.7105 32.7206 47.6988C32.7725 47.6882 32.8255 47.6808 32.8784 47.6755C32.9843 47.6639 33.0923 47.6639 33.2003 47.6755C33.2532 47.6808 33.3062 47.6893 33.3581 47.6988C33.4099 47.7105 33.4618 47.7232 33.5137 47.7391C33.5645 47.7539 33.6143 47.773 33.6641 47.7931C33.7128 47.8132 33.7625 47.8354 33.8091 47.8608C33.8557 47.8862 33.9023 47.9138 33.9457 47.9434C33.9902 47.9731 34.0346 48.0048 34.0749 48.0387C34.1151 48.0726 34.1564 48.1097 34.1945 48.1467C34.2326 48.1838 34.2676 48.224 34.3015 48.2664C34.3353 48.3066 34.3682 48.35 34.3978 48.3945C34.4264 48.4379 34.4539 48.4855 34.4793 48.5321C34.5037 48.5777 34.527 48.6274 34.5482 48.6761C34.5683 48.7248 34.5873 48.7757 34.6022 48.8275C34.617 48.8773 34.6308 48.9302 34.6413 48.9821C34.6519 49.034 34.6593 49.087 34.6646 49.1399C34.671 49.1928 34.6731 49.2468 34.6731 49.2998C34.671 49.3527 34.6699 49.4067 34.6636 49.4607ZM45.0676 49.4607C45.0612 49.5126 45.0538 49.5666 45.0432 49.6185C45.0326 49.6704 45.0199 49.7222 45.0041 49.7741C44.9892 49.8239 44.9702 49.8747 44.9501 49.9245C44.9299 49.9732 44.9077 50.023 44.8812 50.0695C44.8569 50.1161 44.8293 50.1627 44.7997 50.2061C44.7701 50.2506 44.7383 50.294 44.7044 50.3353C44.6705 50.3755 44.6345 50.4158 44.5964 50.4539C44.5583 50.492 44.5191 50.528 44.4768 50.5619C44.4355 50.5958 44.3921 50.6275 44.3486 50.6572C44.3042 50.6868 44.2576 50.7144 44.211 50.7398C44.1644 50.7641 44.1157 50.7874 44.067 50.8075C44.0172 50.8277 43.9675 50.8467 43.9156 50.8615C43.8648 50.8774 43.8129 50.8912 43.7599 50.9018C43.7081 50.9124 43.6551 50.9198 43.6022 50.9251C43.5492 50.9314 43.4952 50.9335 43.4423 50.9335C43.3883 50.9335 43.3343 50.9314 43.2813 50.9251C43.2284 50.9198 43.1755 50.9113 43.1236 50.9018C43.0717 50.8912 43.0198 50.8785 42.969 50.8615C42.9182 50.8467 42.8684 50.8277 42.8186 50.8075C42.7699 50.7885 42.7202 50.7652 42.6736 50.7398C42.627 50.7144 42.5804 50.6868 42.537 50.6572C42.4925 50.6275 42.4481 50.5958 42.4078 50.5619C42.3665 50.528 42.3263 50.492 42.2882 50.4539C42.2501 50.4158 42.2151 50.3766 42.1812 50.3353C42.1473 50.293 42.1145 50.2506 42.0849 50.2061C42.0563 50.1627 42.0277 50.1161 42.0033 50.0695C41.979 50.023 41.9557 49.9732 41.9345 49.9245C41.9144 49.8758 41.8953 49.825 41.8805 49.7741C41.8657 49.7233 41.8519 49.6714 41.8413 49.6185C41.8308 49.5666 41.8233 49.5126 41.8181 49.4607C41.8117 49.4067 41.8096 49.3527 41.8096 49.2998C41.8096 49.2468 41.8117 49.1928 41.8181 49.1399C41.8233 49.087 41.8318 49.034 41.8413 48.9821C41.8519 48.9302 41.8646 48.8773 41.8805 48.8275C41.8953 48.7767 41.9144 48.7259 41.9345 48.6761C41.9546 48.6274 41.9779 48.5777 42.0033 48.5321C42.0277 48.4855 42.0563 48.4379 42.0849 48.3945C42.1145 48.35 42.1473 48.3066 42.1812 48.2664C42.2151 48.224 42.2511 48.1848 42.2882 48.1467C42.3252 48.1086 42.3665 48.0726 42.4078 48.0387C42.4481 48.0048 42.4925 47.9731 42.537 47.9434C42.5815 47.9138 42.627 47.8862 42.6736 47.8608C42.7202 47.8365 42.7699 47.8142 42.8186 47.7931C42.8673 47.773 42.9182 47.7539 42.969 47.7391C43.0198 47.7242 43.0717 47.7105 43.1236 47.6988C43.1755 47.6882 43.2284 47.6808 43.2813 47.6755C43.3883 47.6639 43.4963 47.6639 43.6032 47.6755C43.6562 47.6808 43.7091 47.6893 43.761 47.6988C43.8129 47.7105 43.8648 47.7232 43.9166 47.7391C43.9685 47.755 44.0172 47.773 44.0681 47.7931C44.1168 47.8132 44.1655 47.8354 44.2121 47.8608C44.2586 47.8862 44.3052 47.9138 44.3497 47.9434C44.3942 47.9731 44.4376 48.0048 44.4778 48.0387C44.5202 48.0726 44.5593 48.1097 44.5975 48.1467C44.6356 48.1838 44.6716 48.224 44.7055 48.2664C44.7393 48.3066 44.7711 48.35 44.8008 48.3945C44.8304 48.4379 44.8579 48.4855 44.8823 48.5321C44.9077 48.5777 44.9299 48.6274 44.9511 48.6761C44.9712 48.7248 44.9903 48.7757 45.0051 48.8275C45.0199 48.8773 45.0337 48.9302 45.0443 48.9821C45.0559 49.034 45.0623 49.087 45.0686 49.1399C45.0739 49.1928 45.0761 49.2468 45.0761 49.2998C45.075 49.3527 45.0729 49.4067 45.0676 49.4607Z" fill="white"/>
<path d="M40.1663 39.0186C42.2193 36.6606 43.4613 33.5784 43.4613 30.2071C43.4613 29.5581 43.4148 28.9196 43.3258 28.2949C41.7905 27.5463 40.0646 27.1249 38.2403 27.1249C36.7675 27.1249 35.3592 27.3991 34.0632 27.8989C29.7146 29.5761 26.6313 33.7944 26.6313 38.7338V43.2042C27.7166 43.4879 28.8538 43.6383 30.0281 43.6383C34.0759 43.6383 37.7035 41.8489 40.1663 39.0186Z" fill="white"/>
</svg>
