<svg width="80" height="80" viewBox="0 0 80 80" fill="none" xmlns="http://www.w3.org/2000/svg">
<rect width="80" height="80" rx="18" fill="#374E9D"/>
<g opacity="0.3">
<path d="M47.5 16.4062C47.5 16.0333 47.3518 15.6756 47.0881 15.4119C46.8244 15.1482 46.4667 15 46.0938 15H37.6562C37.2833 15 36.9256 15.1482 36.6619 15.4119C36.3982 15.6756 36.25 16.0333 36.25 16.4062C36.25 16.7792 36.1018 17.1369 35.8381 17.4006C35.5744 17.6643 35.2167 17.8125 34.8438 17.8125C34.4708 17.8125 34.1131 17.9607 33.8494 18.2244C33.5857 18.4881 33.4375 18.8458 33.4375 19.2188V20.625C33.4375 20.998 33.5857 21.3556 33.8494 21.6194C34.1131 21.8831 34.4708 22.0312 34.8438 22.0312H48.9062C49.2792 22.0312 49.6369 21.8831 49.9006 21.6194C50.1643 21.3556 50.3125 20.998 50.3125 20.625V19.2188C50.3125 18.8458 50.1643 18.4881 49.9006 18.2244C49.6369 17.9607 49.2792 17.8125 48.9062 17.8125C48.5333 17.8125 48.1756 17.6643 47.9119 17.4006C47.6482 17.1369 47.5 16.7792 47.5 16.4062Z" fill="white"/>
<path d="M30.8641 17.8125H29.2188C28.0999 17.8125 27.0268 18.257 26.2356 19.0481C25.4445 19.8393 25 20.9124 25 22.0312V55.7812C25 56.9001 25.4445 57.9732 26.2356 58.7644C27.0268 59.5555 28.0999 60 29.2188 60H54.5312C55.6501 60 56.7232 59.5555 57.5144 58.7644C58.3055 57.9732 58.75 56.9001 58.75 55.7812V22.0312C58.75 20.9124 58.3055 19.8393 57.5144 19.0481C56.7232 18.257 55.6501 17.8125 54.5312 17.8125H52.8859C53.0406 18.2512 53.125 18.7266 53.125 19.2188V20.625C53.125 21.7439 52.6805 22.8169 51.8894 23.6081C51.0982 24.3993 50.0251 24.8438 48.9062 24.8438H34.8438C33.7249 24.8438 32.6518 24.3993 31.8606 23.6081C31.0695 22.8169 30.625 21.7439 30.625 20.625V19.2188C30.625 18.7266 30.7094 18.2512 30.8641 17.8125ZM47.5 34.6875C47.5 33.9416 47.7963 33.2262 48.3238 32.6988C48.8512 32.1713 49.5666 31.875 50.3125 31.875C51.0584 31.875 51.7738 32.1713 52.3012 32.6988C52.8287 33.2262 53.125 33.9416 53.125 34.6875V48.75C53.125 49.4959 52.8287 50.2113 52.3012 50.7387C51.7738 51.2662 51.0584 51.5625 50.3125 51.5625C49.5666 51.5625 48.8512 51.2662 48.3238 50.7387C47.7963 50.2113 47.5 49.4959 47.5 48.75V34.6875ZM30.625 45.9375C30.625 45.1916 30.9213 44.4762 31.4488 43.9488C31.9762 43.4213 32.6916 43.125 33.4375 43.125C34.1834 43.125 34.8988 43.4213 35.4262 43.9488C35.9537 44.4762 36.25 45.1916 36.25 45.9375V48.75C36.25 49.4959 35.9537 50.2113 35.4262 50.7387C34.8988 51.2662 34.1834 51.5625 33.4375 51.5625C32.6916 51.5625 31.9762 51.2662 31.4488 50.7387C30.9213 50.2113 30.625 49.4959 30.625 48.75V45.9375ZM41.875 37.5C42.6209 37.5 43.3363 37.7963 43.8637 38.3238C44.3912 38.8512 44.6875 39.5666 44.6875 40.3125V48.75C44.6875 49.4959 44.3912 50.2113 43.8637 50.7387C43.3363 51.2662 42.6209 51.5625 41.875 51.5625C41.1291 51.5625 40.4137 51.2662 39.8863 50.7387C39.3588 50.2113 39.0625 49.4959 39.0625 48.75V40.3125C39.0625 39.5666 39.3588 38.8512 39.8863 38.3238C40.4137 37.7963 41.1291 37.5 41.875 37.5Z" fill="white"/>
</g>
<path d="M45 18.9062C45 18.5333 44.8518 18.1756 44.5881 17.9119C44.3244 17.6482 43.9667 17.5 43.5938 17.5H35.1562C34.7833 17.5 34.4256 17.6482 34.1619 17.9119C33.8982 18.1756 33.75 18.5333 33.75 18.9062C33.75 19.2792 33.6018 19.6369 33.3381 19.9006C33.0744 20.1643 32.7167 20.3125 32.3438 20.3125C31.9708 20.3125 31.6131 20.4607 31.3494 20.7244C31.0857 20.9881 30.9375 21.3458 30.9375 21.7188V23.125C30.9375 23.498 31.0857 23.8556 31.3494 24.1194C31.6131 24.3831 31.9708 24.5312 32.3438 24.5312H46.4062C46.7792 24.5312 47.1369 24.3831 47.4006 24.1194C47.6643 23.8556 47.8125 23.498 47.8125 23.125V21.7188C47.8125 21.3458 47.6643 20.9881 47.4006 20.7244C47.1369 20.4607 46.7792 20.3125 46.4062 20.3125C46.0333 20.3125 45.6756 20.1643 45.4119 19.9006C45.1482 19.6369 45 19.2792 45 18.9062Z" fill="white"/>
<path d="M28.3641 20.3125H26.7188C25.5999 20.3125 24.5268 20.757 23.7356 21.5481C22.9445 22.3393 22.5 23.4124 22.5 24.5312V58.2812C22.5 59.4001 22.9445 60.4732 23.7356 61.2644C24.5268 62.0555 25.5999 62.5 26.7188 62.5H52.0312C53.1501 62.5 54.2232 62.0555 55.0144 61.2644C55.8055 60.4732 56.25 59.4001 56.25 58.2812V24.5312C56.25 23.4124 55.8055 22.3393 55.0144 21.5481C54.2232 20.757 53.1501 20.3125 52.0312 20.3125H50.3859C50.5406 20.7512 50.625 21.2266 50.625 21.7188V23.125C50.625 24.2439 50.1805 25.3169 49.3894 26.1081C48.5982 26.8993 47.5251 27.3438 46.4062 27.3438H32.3438C31.2249 27.3438 30.1518 26.8993 29.3606 26.1081C28.5695 25.3169 28.125 24.2439 28.125 23.125V21.7188C28.125 21.2266 28.2094 20.7512 28.3641 20.3125ZM45 37.1875C45 36.4416 45.2963 35.7262 45.8238 35.1988C46.3512 34.6713 47.0666 34.375 47.8125 34.375C48.5584 34.375 49.2738 34.6713 49.8012 35.1988C50.3287 35.7262 50.625 36.4416 50.625 37.1875V51.25C50.625 51.9959 50.3287 52.7113 49.8012 53.2387C49.2738 53.7662 48.5584 54.0625 47.8125 54.0625C47.0666 54.0625 46.3512 53.7662 45.8238 53.2387C45.2963 52.7113 45 51.9959 45 51.25V37.1875ZM28.125 48.4375C28.125 47.6916 28.4213 46.9762 28.9488 46.4488C29.4762 45.9213 30.1916 45.625 30.9375 45.625C31.6834 45.625 32.3988 45.9213 32.9262 46.4488C33.4537 46.9762 33.75 47.6916 33.75 48.4375V51.25C33.75 51.9959 33.4537 52.7113 32.9262 53.2387C32.3988 53.7662 31.6834 54.0625 30.9375 54.0625C30.1916 54.0625 29.4762 53.7662 28.9488 53.2387C28.4213 52.7113 28.125 51.9959 28.125 51.25V48.4375ZM39.375 40C40.1209 40 40.8363 40.2963 41.3637 40.8238C41.8912 41.3512 42.1875 42.0666 42.1875 42.8125V51.25C42.1875 51.9959 41.8912 52.7113 41.3637 53.2387C40.8363 53.7662 40.1209 54.0625 39.375 54.0625C38.6291 54.0625 37.9137 53.7662 37.3863 53.2387C36.8588 52.7113 36.5625 51.9959 36.5625 51.25V42.8125C36.5625 42.0666 36.8588 41.3512 37.3863 40.8238C37.9137 40.2963 38.6291 40 39.375 40Z" fill="white"/>
</svg>
