<svg width="80" height="80" viewBox="0 0 80 80" fill="none" xmlns="http://www.w3.org/2000/svg">
<rect width="80" height="80" rx="18" fill="#374E9D"/>
<path opacity="0.3" fill-rule="evenodd" clip-rule="evenodd" d="M22.8125 17.5C21.2592 17.5 20 18.7592 20 20.3125C20 21.8658 21.2592 23.125 22.8125 23.125V45.625C22.8125 48.7317 25.3309 51.25 28.4375 51.25H35.71L32.0738 54.8863C30.9754 55.9846 30.9754 57.7654 32.0738 58.8637C33.1721 59.962 34.9529 59.962 36.0512 58.8637L42.5 52.4149L48.9488 58.8637C50.0471 59.962 51.8279 59.962 52.9262 58.8637C54.0245 57.7654 54.0245 55.9846 52.9262 54.8863L49.2899 51.25H56.5625C59.6692 51.25 62.1875 48.7317 62.1875 45.625V23.125C63.7408 23.125 65 21.8658 65 20.3125C65 18.7592 63.7408 17.5 62.1875 17.5H22.8125ZM55.7387 30.7387C56.837 29.6404 56.837 27.8596 55.7387 26.7613C54.6404 25.6629 52.8596 25.6629 51.7613 26.7613L42.5 36.0225L38.8637 32.3863C37.7654 31.2879 35.9846 31.2879 34.8863 32.3863L29.2613 38.0113C28.1629 39.1096 28.1629 40.8904 29.2613 41.9887C30.3596 43.087 32.1404 43.087 33.2387 41.9887L36.875 38.3524L40.5113 41.9887C41.6096 43.087 43.3904 43.087 44.4887 41.9887L55.7387 30.7387Z" fill="white"/>
<path fill-rule="evenodd" clip-rule="evenodd" d="M20.3125 20C18.7592 20 17.5 21.2592 17.5 22.8125C17.5 24.3658 18.7592 25.625 20.3125 25.625V48.125C20.3125 51.2317 22.8309 53.75 25.9375 53.75H33.21L29.5738 57.3863C28.4754 58.4846 28.4754 60.2654 29.5738 61.3637C30.6721 62.462 32.4529 62.462 33.5512 61.3637L40 54.9149L46.4488 61.3637C47.5471 62.462 49.3279 62.462 50.4262 61.3637C51.5245 60.2654 51.5245 58.4846 50.4262 57.3863L46.7899 53.75H54.0625C57.1692 53.75 59.6875 51.2317 59.6875 48.125V25.625C61.2408 25.625 62.5 24.3658 62.5 22.8125C62.5 21.2592 61.2408 20 59.6875 20H20.3125ZM53.2387 33.2387C54.337 32.1404 54.337 30.3596 53.2387 29.2613C52.1404 28.1629 50.3596 28.1629 49.2613 29.2613L40 38.5225L36.3637 34.8863C35.2654 33.7879 33.4846 33.7879 32.3863 34.8863L26.7613 40.5113C25.6629 41.6096 25.6629 43.3904 26.7613 44.4887C27.8596 45.587 29.6404 45.587 30.7387 44.4887L34.375 40.8524L38.0113 44.4887C39.1096 45.587 40.8904 45.587 41.9887 44.4887L53.2387 33.2387Z" fill="white"/>
</svg>
