<svg width="19" height="24" viewBox="0 0 19 24" fill="none" xmlns="http://www.w3.org/2000/svg">
<circle cx="9.5" cy="9.5" r="3.5" fill="#10172F"/>
<path d="M18.4 9.6C18.4 10.4163 18.1399 11.3801 17.6715 12.4405C17.2057 13.4949 16.5505 14.6079 15.7997 15.7124C14.298 17.9216 12.4465 20.0493 11.0623 21.5372C10.2054 22.4583 8.7946 22.4583 7.9377 21.5372C6.55347 20.0493 4.70197 17.9216 3.20029 15.7124C2.44953 14.6079 1.79432 13.4949 1.32853 12.4405C0.860098 11.3801 0.6 10.4163 0.6 9.6C0.6 4.6235 4.59057 0.6 9.5 0.6C14.4094 0.6 18.4 4.6235 18.4 9.6Z" stroke="#10172F" stroke-width="1.2"/>
<rect x="1" y="22" width="17" height="1" fill="#10172F"/>
</svg>
