<svg width="129" height="38" viewBox="0 0 129 38" fill="none" xmlns="http://www.w3.org/2000/svg">
<g clip-path="url(#clip0_810_2664)">
<path d="M45.8437 10.8989H25.5478C25.1539 10.8989 24.9534 10.4192 25.2342 10.1372L35.0666 0.259962C35.4131 -0.0879561 35.9748 -0.0879561 36.3212 0.259962L46.1573 10.1372C46.4382 10.4192 46.2376 10.8989 45.8437 10.8989Z" fill="white"/>
<path d="M12.9946 26.1743H33.2905C33.6843 26.1743 33.8849 26.6541 33.6041 26.9361L23.768 36.8133C23.4215 37.1612 22.8599 37.1612 22.5134 36.8133L12.6773 26.9361C12.3965 26.6541 12.5971 26.1743 12.9909 26.1743H12.9946Z" fill="white"/>
<path d="M20.7409 10.8989H0.445042C0.0511603 10.8989 -0.149428 10.4192 0.131395 10.1372L9.96386 0.259962C10.3103 -0.0879561 10.872 -0.0879561 11.2184 0.259962L21.0546 10.1372C21.3354 10.4192 21.1348 10.8989 20.7409 10.8989Z" fill="white"/>
<path d="M0.131395 14.3306L8.74209 22.9773C9.07398 23.3106 9.52621 23.501 9.99668 23.501H36.292C36.7624 23.501 37.2147 23.3142 37.5465 22.9773L46.1572 14.3306C46.4381 14.0486 46.2375 13.5688 45.8436 13.5688H0.445042C0.0511603 13.5688 -0.149428 14.0486 0.131395 14.3306Z" fill="white"/>
<path d="M64.9687 37.4792L63.2109 32.4105H54.5527L52.7949 37.4792H48.2251L56.245 15.5054H61.7411L69.7573 37.4792H64.9651H64.9687ZM58.9292 19.6438H58.8344L55.6724 28.913H62.0948L58.9329 19.6438H58.9292Z" fill="white"/>
<path d="M84.1377 37.479V24.4229H77.1426V37.479H72.9886V24.4229H70.4648V21.2806H72.9886C72.9886 18.9075 73.4372 16.8859 75.2571 15.5382C76.8217 14.3516 78.9297 14 81.902 14C83.7219 14 85.5126 14.1282 87.172 14.2893V17.5598C85.7022 17.4316 83.9444 17.3364 82.3506 17.3364C78.1638 17.3364 77.1426 18.4607 77.1426 21.2806H88.2916V37.479H84.1377Z" fill="white"/>
<path d="M93.7878 37.479V14.4468H97.9418V37.479H93.7878Z" fill="white"/>
<path d="M113.85 37.4789L113.755 36.6109C111.647 37.3177 109.89 37.9257 107.847 37.9257C106.472 37.9257 105.068 37.5741 104.043 36.6109C102.989 35.6477 102.479 34.4612 102.479 32.7618C102.479 31.0625 103.183 29.3303 104.809 28.4623C106.053 27.7884 107.333 27.6603 109.058 27.6603C110.178 27.6603 111.775 27.7555 113.212 27.8837V27.338C113.212 24.8989 112.191 23.9357 108.803 23.9357C107.399 23.9357 105.83 24.0309 104.364 24.1921V21.1121C106.089 20.9509 107.847 20.8228 109.572 20.8228C111.903 20.8228 114.171 21.0791 115.641 22.3609C117.173 23.6757 117.366 25.4739 117.366 27.7518V37.4716H113.85V37.4789ZM113.212 30.5498C112.125 30.4216 110.721 30.3557 109.762 30.3557C107.366 30.3557 106.501 31.1907 106.501 32.6337C106.501 34.0766 107.428 34.9739 109.12 34.9739C110.397 34.9739 111.837 34.5893 113.208 34.1718V30.5462L113.212 30.5498Z" fill="white"/>
<path d="M127.6 22.5268C126.794 23.2373 125.63 23.501 124.507 23.501C123.384 23.501 122.249 23.2227 121.429 22.5122C120.528 21.7468 120.028 20.5089 120.028 18.5313C120.028 16.5536 120.513 15.3267 121.414 14.5503C122.246 13.8545 123.395 13.5762 124.518 13.5762C125.641 13.5762 126.779 13.8545 127.596 14.565C128.482 15.3304 128.996 16.5719 128.996 18.5349C128.996 20.4979 128.497 21.7651 127.596 22.5305L127.6 22.5268ZM124.521 14.2134C121.899 14.2134 120.721 15.4806 120.721 18.502C120.721 21.5234 121.983 22.8601 124.492 22.8601C127.125 22.8601 128.303 21.6076 128.303 18.5569C128.303 15.5062 127.042 14.2134 124.518 14.2134H124.521ZM125.823 21.3732L124.675 19.1868H123.537V21.3732H122.665V15.649H124.456C125.174 15.649 125.802 15.7333 126.232 16.1105C126.593 16.4438 126.702 16.9198 126.702 17.4326C126.702 17.8904 126.553 18.3225 126.261 18.6301C126.082 18.8389 125.816 18.9634 125.554 19.0476L126.801 21.3732H125.831H125.823ZM124.438 16.3156H123.551V18.502H124.438C125.448 18.502 125.783 18.1247 125.783 17.4143C125.783 16.6195 125.328 16.3119 124.438 16.3119V16.3156Z" fill="white"/>
</g>
<defs>
<clipPath id="clip0_810_2664">
<rect width="129" height="38" fill="white"/>
</clipPath>
</defs>
</svg>
