<svg width="25" height="24" viewBox="0 0 25 24" fill="none" xmlns="http://www.w3.org/2000/svg">
<path d="M12.5 3C7.56956 3 3.5 7.06956 3.5 12C3.5 13.8783 4.04783 15.6 5.06522 17.087L4.04783 20.1391C3.96957 20.2957 4.04783 20.4522 4.12609 20.5304C4.28261 20.6087 4.43913 20.687 4.59565 20.6087L7.72609 19.5913C9.13478 20.5304 10.8565 21 12.5 21C17.4304 21 21.5 16.9304 21.5 12C21.5 7.06956 17.4304 3 12.5 3ZM17.9 15.6783C17.6652 16.3826 16.7261 17.0087 15.9435 17.1652C15.787 17.1652 15.6304 17.2435 15.3957 17.2435C14.7696 17.2435 13.987 17.0087 12.7348 16.5391C11.1696 15.913 9.60435 14.5043 8.35217 12.7043L8.27391 12.6261C7.80435 12 7.1 10.9043 7.1 9.73043C7.1 8.4 7.80435 7.69565 8.03913 7.38261C8.35217 7.06957 8.74348 6.91304 9.21304 6.91304C9.2913 6.91304 9.36957 6.91304 9.44783 6.91304H9.52609C9.91739 6.91304 10.1522 7.06957 10.387 7.53913L10.5435 7.85217C10.7783 8.4 11.0913 9.26087 11.1696 9.41739C11.3261 9.73043 11.3261 9.96522 11.1696 10.2C11.0913 10.3565 11.013 10.513 10.8565 10.6696C10.7783 10.7478 10.7 10.8261 10.7 10.9043C10.6217 10.9826 10.5435 11.0609 10.4652 11.1391C10.4652 11.2174 10.4652 11.2174 10.4652 11.2174C10.7 11.6087 11.1696 12.313 11.7957 12.8609C12.6565 13.6435 13.2826 13.8783 13.5957 14.0348H13.6739C13.7522 14.0348 13.8304 14.113 13.8304 14.0348C13.987 13.8783 14.1435 13.5652 14.3783 13.3304L14.4565 13.2522C14.6913 12.9391 15.0043 12.8609 15.1609 12.8609C15.2391 12.8609 15.3957 12.8609 15.4739 12.9391C15.5522 12.9391 15.7087 13.0174 17.1957 13.8L17.3522 13.8783C17.587 13.9565 17.7435 14.0348 17.8217 14.2696C18.1348 14.4261 18.0565 15.1304 17.9 15.6783Z" fill="black"/>
<mask id="mask0_894_1589" style="mask-type:luminance" maskUnits="userSpaceOnUse" x="3" y="3" width="19" height="18">
<path d="M12.5 3C7.56956 3 3.5 7.06956 3.5 12C3.5 13.8783 4.04783 15.6 5.06522 17.087L4.04783 20.1391C3.96957 20.2957 4.04783 20.4522 4.12609 20.5304C4.28261 20.6087 4.43913 20.687 4.59565 20.6087L7.72609 19.5913C9.13478 20.5304 10.8565 21 12.5 21C17.4304 21 21.5 16.9304 21.5 12C21.5 7.06956 17.4304 3 12.5 3ZM17.9 15.6783C17.6652 16.3826 16.7261 17.0087 15.9435 17.1652C15.787 17.1652 15.6304 17.2435 15.3957 17.2435C14.7696 17.2435 13.987 17.0087 12.7348 16.5391C11.1696 15.913 9.60435 14.5043 8.35217 12.7043L8.27391 12.6261C7.80435 12 7.1 10.9043 7.1 9.73043C7.1 8.4 7.80435 7.69565 8.03913 7.38261C8.35217 7.06957 8.74348 6.91304 9.21304 6.91304C9.2913 6.91304 9.36957 6.91304 9.44783 6.91304H9.52609C9.91739 6.91304 10.1522 7.06957 10.387 7.53913L10.5435 7.85217C10.7783 8.4 11.0913 9.26087 11.1696 9.41739C11.3261 9.73043 11.3261 9.96522 11.1696 10.2C11.0913 10.3565 11.013 10.513 10.8565 10.6696C10.7783 10.7478 10.7 10.8261 10.7 10.9043C10.6217 10.9826 10.5435 11.0609 10.4652 11.1391C10.4652 11.2174 10.4652 11.2174 10.4652 11.2174C10.7 11.6087 11.1696 12.313 11.7957 12.8609C12.6565 13.6435 13.2826 13.8783 13.5957 14.0348H13.6739C13.7522 14.0348 13.8304 14.113 13.8304 14.0348C13.987 13.8783 14.1435 13.5652 14.3783 13.3304L14.4565 13.2522C14.6913 12.9391 15.0043 12.8609 15.1609 12.8609C15.2391 12.8609 15.3957 12.8609 15.4739 12.9391C15.5522 12.9391 15.7087 13.0174 17.1957 13.8L17.3522 13.8783C17.587 13.9565 17.7435 14.0348 17.8217 14.2696C18.1348 14.4261 18.0565 15.1304 17.9 15.6783Z" fill="white"/>
</mask>
<g mask="url(#mask0_894_1589)">
<rect x="0.5" width="24" height="24" fill="black"/>
</g>
</svg>
